<mxfile host="app.diagrams.net" modified="2024-04-08T15:24:56.628Z" agent="Mozilla/5.0 (Windows NT 10.0; Win64; x64; rv:124.0) Gecko/20100101 Firefox/124.0" version="24.1.0" etag="d7OOl9bNGTrS7wc_njUW" type="github">
  <diagram name="第 1 页" id="HMtcT05-r0y-im0quTDf">
    <mxGraphModel>
      <root>
        <mxCell id="0" />
        <mxCell id="1" parent="0" />
      </root>
    </mxGraphModel>
  </diagram>
</mxfile>
